HIERARCHY
ROOT Hips
{
	OFFSET 0.0000 0.0000 0.0000
	CHANNELS 6 Xposition Yposition Zposition Zrotation Xrotation Yrotation
	JOINT Spine1
	{
		OFFSET -0.0137 5.0038 -0.0537
		CHANNELS 3 Zrotation Xrotation Yrotation
		JOINT Spine2
		{
			OFFSET -0.0000 7.1253 -0.0298
			CHANNELS 3 Zrotation Xrotation Yrotation
			JOINT Chest
			{
				OFFSET -0.0000 7.5501 -0.8160
				CHANNELS 3 Zrotation Xrotation Yrotation
				JOINT Neck1
				{
					OFFSET -0.1817 26.3113 -0.5533
					CHANNELS 3 Zrotation Xrotation Yrotation
					JOINT Neck2
					{
						OFFSET -0.0000 7.7094 2.3026
						CHANNELS 3 Zrotation Xrotation Yrotation
						JOINT Head
						{
							OFFSET -0.0000 6.1289 1.9537
							CHANNELS 3 Zrotation Xrotation Yrotation
							JOINT Jaw
							{
								OFFSET 0.0026 0.4756 3.0949
								CHANNELS 3 Zrotation Xrotation Yrotation
								End Site
								{
									OFFSET 0.0 1.0 0.0
								}
							}
							JOINT LeftEye
							{
								OFFSET 3.2064 5.3802 7.5869
								CHANNELS 3 Zrotation Xrotation Yrotation
								End Site
								{
									OFFSET 0.0 1.0 0.0
								}
							}
							JOINT RightEye
							{
								OFFSET -3.2224 5.3619 7.5582
								CHANNELS 3 Zrotation Xrotation Yrotation
								End Site
								{
									OFFSET 0.0 1.0 0.0
								}
							}
						}
					}
				}
				JOINT LeftShoulder
				{
					OFFSET 1.6217 23.2372 5.1134
					CHANNELS 3 Zrotation Xrotation Yrotation
					JOINT LeftArm
					{
						OFFSET 14.9198 0.0000 -5.5023
						CHANNELS 3 Zrotation Xrotation Yrotation
						JOINT LeftForeArm
						{
							OFFSET 28.7393 0.0000 -0.0026
							CHANNELS 3 Zrotation Xrotation Yrotation
							JOINT LeftHand
							{
								OFFSET 27.0940 -0.0000 0.0026
								CHANNELS 3 Zrotation Xrotation Yrotation
								JOINT LeftHandThumbEnd
								{
									OFFSET 12.2686 -3.2202 4.8331
									CHANNELS 3 Zrotation Xrotation Yrotation
									End Site
									{
										OFFSET 0.0 1.0 0.0
									}
								}
								JOINT LeftHandMiddleEnd
								{
									OFFSET 19.0120 -0.3129 -0.0340
									CHANNELS 3 Zrotation Xrotation Yrotation
									End Site
									{
										OFFSET 0.0 1.0 0.0
									}
								}
							}
						}
					}
				}
				JOINT RightShoulder
				{
					OFFSET -1.3801 23.1803 5.2142
					CHANNELS 3 Zrotation Xrotation Yrotation
					JOINT RightArm
					{
						OFFSET -15.0372 0.0000 -5.5456
						CHANNELS 3 Zrotation Xrotation Yrotation
						JOINT RightForeArm
						{
							OFFSET -28.7366 0.0000 -0.0026
							CHANNELS 3 Zrotation Xrotation Yrotation
							JOINT RightHand
							{
								OFFSET -27.1336 -0.0000 0.0026
								CHANNELS 3 Zrotation Xrotation Yrotation
								JOINT RightHandThumbEnd
								{
									OFFSET -12.2642 -3.2115 4.8040
									CHANNELS 3 Zrotation Xrotation Yrotation
									End Site
									{
										OFFSET 0.0 1.0 0.0
									}
								}
								JOINT RightHandMiddleEnd
								{
									OFFSET -19.0006 -0.3066 -0.0316
									CHANNELS 3 Zrotation Xrotation Yrotation
									End Site
									{
										OFFSET 0.0 1.0 0.0
									}
								}
							}
						}
					}
				}
			}
		}
	}
	JOINT LeftLeg
	{
		OFFSET 10.0432 -8.4345 2.5957
		CHANNELS 3 Zrotation Xrotation Yrotation
		JOINT LeftShin
		{
			OFFSET -0.0000 -43.2218 -0.8029
			CHANNELS 3 Zrotation Xrotation Yrotation
			JOINT LeftFoot
			{
				OFFSET 0.0000 -42.1551 -3.4815
				CHANNELS 3 Zrotation Xrotation Yrotation
				JOINT LeftToeBase
				{
					OFFSET 0.0000 -5.0595 13.2315
					CHANNELS 3 Zrotation Xrotation Yrotation
					End Site
					{
						OFFSET 0.0 1.0 0.0
					}
				}
			}
		}
	}
	JOINT RightLeg
	{
		OFFSET -10.0473 -8.2953 2.6203
		CHANNELS 3 Zrotation Xrotation Yrotation
		JOINT RightShin
		{
			OFFSET 0.0000 -43.3622 -0.8056
			CHANNELS 3 Zrotation Xrotation Yrotation
			JOINT RightFoot
			{
				OFFSET 0.0000 -42.1174 -3.4784
				CHANNELS 3 Zrotation Xrotation Yrotation
				JOINT RightToeBase
				{
					OFFSET -0.0000 -5.0796 13.2842
					CHANNELS 3 Zrotation Xrotation Yrotation
					End Site
					{
						OFFSET 0.0 1.0 0.0
					}
				}
			}
		}
	}
}
MOTION
Frames: 14
Frame Time: 0.033333
-5.1061 94.7993 1.9061 4.7000 0.7902 -0.4127 0.3797 -0.0653 -0.8011 -0.0467 -4.5784 -0.6779 2.6690 15.8309 -3.1212 11.2864 4.6959 -1.4246 -6.6163 -4.4462 -20.6431 4.4254 -2.9973 -27.8299 -0.0449 -0.0900 0.1948 0.7924 -10.6852 -3.6774 -0.8620 -10.7650 4.0389 -0.3633 16.8474 -3.1241 -70.4192 14.7154 -36.8921 -1.3271 -0.1921 -29.4901 17.9621 -17.4013 -5.5900 -16.5577 10.1824 15.7522 -60.4824 1.3646 2.4659 13.5282 12.1450 11.9771 65.0847 -24.1200 -31.2080 1.3399 0.3371 99.1014 -55.7085 11.5074 10.6115 14.3563 7.7265 -16.2147 49.8114 -3.7138 -5.3259 6.5534 -3.7344 10.0827 -0.0730 21.5414 -0.6009 -16.4186 -14.8072 11.5037 1.6623 0.9820 -1.9715 -5.6145 -36.5132 -45.0262 -0.1046 33.0772 -0.3059 2.5342 0.4480 -20.5389 -1.4571 1.5594 0.9006
-5.1607 94.8704 2.0368 4.6765 0.8307 -0.4851 0.4218 -0.0317 -0.8115 0.0193 -4.5815 -0.6420 2.6640 15.7795 -3.1490 11.4006 4.7867 -1.4239 -6.7606 -4.4680 -20.6078 4.4343 -2.7234 -28.0573 -0.0589 -0.1231 0.2199 0.7727 -10.7092 -3.6541 -0.8695 -10.7960 4.0693 -0.0738 16.9002 -3.0900 -70.8830 14.4969 -36.8680 -1.2215 -0.2374 -29.2166 17.5944 -17.9329 -5.5751 -16.4950 10.1763 15.6551 -60.5604 1.3960 2.3260 13.2668 12.3287 11.8725 65.4569 -24.0868 -30.9751 1.4566 0.2160 99.1339 -55.9305 12.3717 10.6869 14.4347 7.6632 -16.0810 49.7260 -3.7038 -5.1894 6.5303 -3.6995 10.3080 -0.0983 21.4232 -0.6556 -16.3851 -14.8481 11.2686 1.6620 0.8777 -1.9840 -5.6155 -36.3760 -45.0480 -0.1355 32.8741 -0.3564 2.7885 0.6283 -20.3526 -1.4661 1.4944 0.9106
-5.1416 94.8574 2.1607 4.6702 0.8628 -0.5747 0.4639 -0.0038 -0.7997 0.0535 -4.5791 -0.6141 2.7036 15.7508 -3.1302 11.4442 4.8808 -1.4104 -6.7919 -4.4969 -20.6601 4.4103 -2.5923 -28.1342 -0.0656 -0.1349 0.2360 0.7612 -10.7422 -3.6400 -0.8716 -10.8286 4.0898 0.0916 16.9240 -3.0740 -71.1898 14.4464 -36.8482 -1.1014 -0.2667 -29.1687 17.3881 -18.4432 -5.6264 -16.4721 10.2123 15.6614 -60.5859 1.3994 2.3258 12.9473 12.4825 11.8536 65.5661 -24.0473 -30.6721 1.3870 0.2289 99.3561 -56.2056 13.0489 10.6350 14.4503 7.6016 -15.9711 49.5916 -3.7104 -5.1238 6.4910 -3.7156 10.5026 -0.1012 21.5094 -0.6681 -16.2687 -15.0726 11.0656 1.6674 0.8542 -1.9911 -5.6346 -36.4459 -45.1118 -0.1366 32.9528 -0.3766 3.0121 0.7037 -20.1892 -1.4700 1.4922 0.9269
-5.1176 94.8397 2.3096 4.6635 0.8851 -0.7092 0.4908 -0.0059 -0.7664 0.0748 -4.5859 -0.5909 2.7544 15.7435 -3.1111 11.4388 5.0174 -1.3676 -6.7526 -4.5246 -20.7496 4.3559 -2.5796 -28.0805 -0.0662 -0.1359 0.2408 0.7560 -10.7589 -3.6370 -0.8676 -10.8422 4.0963 0.1570 16.9174 -3.0094 -71.3725 14.4802 -36.7790 -1.0372 -0.3162 -29.2423 17.3901 -18.8402 -5.7152 -16.4292 10.2111 15.6632 -60.5062 1.3846 2.3506 12.6466 12.6114 11.8873 65.5160 -24.0314 -30.3978 1.3625 0.2728 99.5531 -56.5214 13.5667 10.5261 14.5036 7.5368 -15.8776 49.4887 -3.6922 -5.0910 6.4422 -3.7153 10.7174 -0.0928 21.6477 -0.6667 -16.1826 -15.3514 10.9245 1.6697 0.8784 -1.9984 -5.6756 -36.5237 -45.1601 -0.1407 33.0447 -0.4135 3.2190 0.7442 -19.9708 -1.4728 1.5032 0.9317
-5.0565 94.8228 2.4811 4.6633 0.8985 -0.8641 0.5020 -0.0416 -0.7447 0.0867 -4.5978 -0.5707 2.8013 15.7591 -3.0954 11.3977 5.1686 -1.3218 -6.6989 -4.5306 -20.8007 4.3303 -2.6221 -28.0210 -0.0649 -0.1301 0.2406 0.7567 -10.7589 -3.6390 -0.8651 -10.8377 4.0956 0.1892 16.9045 -2.9306 -71.5131 14.5428 -36.8468 -0.9759 -0.3392 -29.2765 17.4271 -19.2344 -5.7478 -16.3856 10.1967 15.6500 -60.4069 1.3694 2.3681 12.4072 12.7091 11.9360 65.4465 -24.0396 -30.1285 1.2952 0.3188 99.7256 -56.7944 13.9447 10.3219 14.4913 7.5147 -15.8346 49.4232 -3.6720 -5.0834 6.3851 -3.6258 10.9338 -0.0805 21.7000 -0.6768 -16.1718 -15.5913 10.9039 1.6684 0.8859 -2.0076 -5.7215 -36.5721 -45.1995 -0.1315 33.0907 -0.4175 3.4393 0.7860 -19.7908 -1.4734 1.4980 0.9331
-5.0107 94.8176 2.6837 4.6596 0.9089 -1.0385 0.4940 -0.0954 -0.7464 0.0903 -4.6181 -0.5673 2.8195 15.7862 -3.1125 11.3374 5.3135 -1.3013 -6.6258 -4.5166 -20.7747 4.3123 -2.6315 -27.9276 -0.0650 -0.1273 0.2423 0.7536 -10.7638 -3.6409 -0.8618 -10.8397 4.0995 0.2313 16.8876 -2.8362 -71.6562 14.6495 -37.0628 -0.9130 -0.3420 -29.2852 17.3948 -19.5497 -5.6305 -16.3751 10.2017 15.6594 -60.3668 1.3726 2.3872 12.2679 12.7477 12.0036 65.3905 -24.0170 -29.8550 1.2611 0.3139 99.8548 -57.0601 14.2313 10.0518 14.4698 7.4835 -15.7837 49.3711 -3.6660 -5.0766 6.3238 -3.4510 11.0748 -0.0720 21.6530 -0.6741 -16.1664 -15.8007 10.9427 1.6650 0.8914 -2.0263 -5.7848 -36.5797 -45.1987 -0.1159 33.1017 -0.3986 3.6973 0.8283 -19.6394 -1.4716 1.4743 0.9348
-5.0076 94.8348 2.9072 4.6407 0.9407 -1.2334 0.4704 -0.1540 -0.7390 0.0965 -4.6473 -0.5836 2.8296 15.7724 -3.1339 11.2832 5.4708 -1.2960 -6.5615 -4.4866 -20.7113 4.3023 -2.6120 -27.8271 -0.0681 -0.1274 0.2503 0.7514 -10.7640 -3.6324 -0.8653 -10.8375 4.1077 0.2635 16.8788 -2.7746 -71.7857 14.8306 -37.3871 -0.8586 -0.3406 -29.2791 17.2575 -19.8411 -5.4623 -16.3430 10.1890 15.6518 -60.3370 1.3923 2.4011 12.2475 12.7257 12.1013 65.3490 -23.9024 -29.6154 1.2337 0.3005 99.9653 -57.3165 14.3721 9.8949 14.4575 7.4818 -15.7551 49.3368 -3.6507 -5.0657 6.2872 -3.2168 11.1802 -0.0746 21.5074 -0.6811 -16.1833 -15.9497 11.0173 1.6635 0.8599 -2.0332 -5.8616 -36.5324 -45.0762 -0.0999 33.0819 -0.3783 3.9546 0.8705 -19.5501 -1.4702 1.4588 0.9324
-4.9903 94.8876 3.1608 4.5921 1.0096 -1.4273 0.4430 -0.2519 -0.7628 0.0941 -4.6674 -0.5758 2.8499 15.7212 -3.1831 11.2430 5.6375 -1.3042 -6.5088 -4.4607 -20.6546 4.2826 -2.5792 -27.6713 -0.0724 -0.1349 0.2587 0.7485 -10.7623 -3.6199 -0.8713 -10.8354 4.1147 0.3003 16.8622 -2.7502 -71.9036 15.0933 -37.8875 -0.8381 -0.3478 -29.2868 17.0600 -20.2114 -5.3538 -16.3464 10.1886 15.6498 -60.3192 1.4060 2.4284 12.3009 12.6889 12.1663 65.3884 -23.7327 -29.3561 1.1895 0.3021 100.0924 -57.5521 14.4493 9.7838 14.4514 7.4743 -15.7137 49.3155 -3.6258 -5.0642 6.2834 -2.9536 11.1972 -0.0751 21.2407 -0.6797 -16.1973 -16.0070 11.1612 1.6642 0.8199 -2.0306 -5.9276 -36.4173 -44.8635 -0.0719 32.9976 -0.3323 4.2025 0.9043 -19.4943 -1.4665 1.4452 0.9244
-4.9944 94.9296 3.4342 4.5021 1.1015 -1.5781 0.4015 -0.3462 -0.7955 0.0930 -4.6771 -0.5840 2.8990 15.6083 -3.2363 11.2507 5.8154 -1.3315 -6.4662 -4.4363 -20.5759 4.2404 -2.5469 -27.5183 -0.0750 -0.1400 0.2611 0.7472 -10.7653 -3.6170 -0.8748 -10.8358 4.1169 0.3700 16.8381 -2.7702 -71.9769 15.4116 -38.3895 -0.8665 -0.3700 -29.3810 16.7846 -20.4465 -5.3051 -16.3176 10.1975 15.6307 -60.3334 1.4341 2.4581 12.4046 12.6463 12.2198 65.4751 -23.5634 -29.1211 1.1859 0.2864 100.1786 -57.8589 14.4482 9.7002 14.4601 7.4745 -15.6722 49.2470 -3.6116 -5.0285 6.3299 -2.6950 11.1717 -0.0752 20.9176 -0.6878 -16.2239 -16.0482 11.2944 1.6625 0.7735 -2.0295 -5.9988 -36.2378 -44.5432 -0.0470 32.9348 -0.2861 4.5015 0.8522 -19.4817 -1.4627 1.4377 0.9220
-5.0037 94.9825 3.7420 4.3710 1.2070 -1.6909 0.3432 -0.4337 -0.8177 0.0813 -4.6944 -0.5852 2.9842 15.4545 -3.2821 11.3054 6.0343 -1.4026 -6.4118 -4.3964 -20.5183 4.2088 -2.4750 -27.4041 -0.0763 -0.1458 0.2622 0.7475 -10.7679 -3.6129 -0.8776 -10.8349 4.1164 0.4991 16.8124 -2.7867 -71.9864 15.8204 -38.9291 -0.9306 -0.3965 -29.6991 16.4876 -20.5250 -5.3032 -16.2968 10.2382 15.6348 -60.3826 1.4745 2.4295 12.5622 12.5670 12.2581 65.5371 -23.3334 -28.9049 1.1283 0.2604 100.2947 -58.2665 14.3505 9.6664 14.4305 7.4922 -15.6584 49.1821 -3.6088 -5.0123 6.4286 -2.4451 11.0760 -0.0760 20.5895 -0.6899 -16.2259 -16.0891 11.4198 1.6640 0.7199 -2.0282 -6.0747 -36.0118 -44.1042 -0.0224 32.9253 -0.2489 4.8311 0.7315 -19.5295 -1.4598 1.4419 0.9186
-5.0587 95.0229 4.0786 4.2040 1.3075 -1.7333 0.2638 -0.5234 -0.8110 0.0545 -4.7215 -0.6103 3.0914 15.2928 -3.3083 11.3938 6.2735 -1.5264 -6.3600 -4.3517 -20.4561 4.1932 -2.3066 -27.3641 -0.0748 -0.1487 0.2569 0.7500 -10.7845 -3.6219 -0.8762 -10.8460 4.1135 0.6679 16.7561 -2.7860 -71.8848 16.3696 -39.3724 -0.9688 -0.4287 -30.4220 16.1256 -20.3471 -5.2670 -16.2799 10.2779 15.6425 -60.4753 1.5037 2.3785 12.7941 12.4498 12.3063 65.5527 -23.1238 -28.8128 1.1132 0.1930 100.4203 -58.8319 14.2048 9.6770 14.4295 7.4861 -15.6153 49.1629 -3.5980 -4.9994 6.5885 -2.2387 10.9234 -0.0778 20.3559 -0.6893 -16.2157 -16.2016 11.5179 1.6609 0.6746 -2.0222 -6.1863 -35.7612 -43.5405 0.0003 33.0483 -0.2048 5.2223 0.5148 -19.6877 -1.4587 1.4321 0.9243
-5.1774 95.0364 4.4310 4.0203 1.3695 -1.6864 0.1599 -0.6106 -0.8230 0.0053 -4.7201 -0.5886 3.2189 15.1082 -3.3114 11.5431 6.5031 -1.6718 -6.3038 -4.3259 -20.4624 4.1882 -2.0904 -27.3577 -0.0712 -0.1508 0.2457 0.7544 -10.8023 -3.6368 -0.8729 -10.8580 4.1050 0.8693 16.6444 -2.7438 -71.6552 17.0821 -39.6827 -0.9306 -0.4567 -31.6666 15.7362 -19.8858 -5.2248 -16.3262 10.3458 15.6822 -60.5919 1.5250 2.3183 13.0541 12.3112 12.3647 65.6127 -22.9028 -28.9086 1.0380 0.1495 100.5646 -59.4357 13.9542 9.6998 14.4483 7.4896 -15.5943 49.1970 -3.6133 -5.0114 6.8197 -2.0590 10.6119 -0.0776 20.2784 -0.7040 -16.2487 -16.3852 11.6136 1.6588 0.5903 -2.0207 -6.3711 -35.4832 -42.8557 0.0186 33.3182 -0.1712 5.6115 0.1700 -20.0064 -1.4589 1.3828 0.9379
-5.3050 94.9739 4.7912 3.8364 1.4040 -1.5183 0.0156 -0.6781 -0.8188 -0.0520 -4.7265 -0.5574 3.3447 14.9038 -3.2523 11.7737 6.7261 -1.8549 -6.2538 -4.3103 -20.5600 4.2305 -1.8368 -27.4018 -0.0681 -0.1483 0.2338 0.7574 -10.8134 -3.6518 -0.8692 -10.8682 4.0960 1.1349 16.4693 -2.6592 -71.2597 17.9232 -39.6190 -0.8294 -0.4815 -33.6220 15.2644 -19.0190 -5.1370 -16.3033 10.3783 15.7211 -60.6527 1.5171 2.2803 13.3467 12.1262 12.4477 65.7563 -22.6694 -29.4002 0.9869 0.1060 100.7286 -60.1218 13.5294 9.7523 14.4780 7.4657 -15.5556 49.1827 -3.6246 -5.0090 7.1029 -1.9349 10.1045 -0.0792 20.4235 -0.7210 -16.3887 -16.7458 11.7333 1.6549 0.5003 -2.0313 -6.6265 -35.2745 -42.0584 0.0302 33.8863 -0.1471 5.9876 -0.3478 -20.4662 -1.4591 1.2726 0.9449
-5.5446 94.8265 5.1944 3.6540 1.3919 -1.2321 -0.1787 -0.7304 -0.8070 -0.1201 -4.7260 -0.4854 3.4324 14.7089 -3.1553 12.1156 6.9295 -2.0544 -6.2172 -4.3070 -20.7181 4.3689 -1.5791 -27.5495 -0.0657 -0.1496 0.2246 0.7568 -10.8276 -3.6624 -0.8632 -10.8789 4.0875 1.4178 16.2701 -2.5409 -70.5846 18.9009 -39.0123 -0.6607 -0.4873 -36.5080 14.6839 -17.6815 -4.9792 -16.2893 10.4095 15.7662 -60.7449 1.4897 2.2549 13.6619 11.9110 12.5724 66.0080 -22.4487 -30.2659 0.8878 0.0749 100.9425 -60.8713 12.8288 9.7685 14.5484 7.4380 -15.5046 49.1841 -3.6115 -5.0113 7.4559 -1.8927 9.3803 -0.0763 20.8842 -0.7493 -16.6692 -17.2844 11.8788 1.6542 0.3843 -2.0518 -6.9836 -35.1292 -41.0563 0.0554 34.8203 -0.0808 6.4142 -1.1140 -21.1554 -1.4571 1.1003 0.9625
